<svg xmlns="http://www.w3.org/2000/svg" width="256" height="256" viewBox="0 0 100 100"><rect width="100" height="100" rx="20" fill="#45b29a"></rect><path fill="#fff" d="M26.93 64.94L26.93 64.94Q30.95 64.94 33.02 63.11Q35.09 61.28 35.09 58.40L35.09 58.40Q35.09 55.88 33.50 54.32Q31.91 52.76 28.49 51.74L28.49 51.74L23.27 50.18Q19.43 49.04 17.24 46.82Q15.05 44.60 15.05 40.82L15.05 40.82Q15.05 38.54 15.92 36.71Q16.79 34.88 18.41 33.62Q20.03 32.36 22.28 31.67Q24.53 30.98 27.35 30.98L27.35 30.98Q29.75 30.98 31.82 31.37Q33.89 31.76 35.42 32.45Q36.95 33.14 37.79 33.98Q38.63 34.82 38.63 35.72L38.63 35.72Q38.63 36.56 38.21 37.16Q37.79 37.76 37.13 38.12L37.13 38.12Q35.57 36.92 33.08 36.02Q30.59 35.12 27.53 35.12L27.53 35.12Q23.99 35.12 21.98 36.62Q19.97 38.12 19.97 40.82L19.97 40.82Q19.97 42.92 21.41 44.24Q22.85 45.56 26.21 46.52L26.21 46.52L29.87 47.60Q34.61 48.98 37.34 51.47Q40.07 53.96 40.07 58.40L40.07 58.40Q40.07 63.14 36.65 66.08Q33.23 69.02 26.93 69.02L26.93 69.02Q24.17 69.02 21.92 68.54Q19.67 68.06 18.08 67.28Q16.49 66.50 15.62 65.57Q14.75 64.64 14.75 63.74L14.75 63.74Q14.75 62.72 15.38 62.03Q16.01 61.34 16.85 61.04L16.85 61.04Q17.51 61.70 18.47 62.39Q19.43 63.08 20.69 63.65Q21.95 64.22 23.51 64.58Q25.07 64.94 26.93 64.94ZM68.99 58.76L68.99 58.76Q68.57 59.06 67.88 59.30Q67.19 59.54 66.35 59.54L66.35 59.54Q65.39 59.54 64.64 59.24Q63.89 58.94 63.59 58.28L63.59 58.28Q60.35 51.56 58.01 45.98Q55.67 40.40 54.23 36.74L54.23 36.74L53.99 36.74Q53.81 41.24 53.60 45.11Q53.39 48.98 53.15 52.67Q52.91 56.36 52.67 60.14Q52.43 63.92 52.19 68.24L52.19 68.24Q51.83 68.36 51.26 68.48Q50.69 68.60 50.03 68.60L50.03 68.60Q48.71 68.60 48.17 68.06Q47.63 67.52 47.63 66.50L47.63 66.50Q47.63 65.90 47.72 63.92Q47.81 61.94 47.99 59.12Q48.17 56.30 48.38 52.88Q48.59 49.46 48.86 45.92Q49.13 42.38 49.40 38.96Q49.67 35.54 49.91 32.72L49.91 32.72Q50.39 32.30 51.29 31.94Q52.19 31.58 53.33 31.58L53.33 31.58Q56.09 31.58 57.17 33.80L57.17 33.80Q58.31 36.14 59.48 38.75Q60.65 41.36 61.82 44.06Q62.99 46.76 64.10 49.40Q65.21 52.04 66.23 54.44L66.23 54.44L66.47 54.44Q67.79 51.26 69.11 48.17Q70.43 45.08 71.69 42.20Q72.95 39.32 74.09 36.80Q75.23 34.28 76.13 32.18L76.13 32.18Q76.67 31.88 77.51 31.73Q78.35 31.58 79.07 31.58L79.07 31.58Q81.89 31.58 82.31 33.50L82.31 33.50Q82.55 34.58 82.85 37.07Q83.15 39.56 83.45 42.80Q83.75 46.04 84.02 49.76Q84.29 53.48 84.53 56.93Q84.77 60.38 84.95 63.29Q85.13 66.20 85.25 67.88L85.25 67.88Q84.17 68.60 82.73 68.60L82.73 68.60Q81.83 68.60 81.14 68.15Q80.45 67.70 80.33 66.50L80.33 66.50Q80.03 62.12 79.79 57.80Q79.55 53.48 79.34 49.58Q79.13 45.68 78.95 42.41Q78.77 39.14 78.65 36.86L78.65 36.86L78.41 36.86Q77.75 38.54 76.88 40.64Q76.01 42.74 74.84 45.38Q73.67 48.02 72.23 51.35Q70.79 54.68 68.99 58.76Z"></path></svg>